# Blender 5.1.0
# www.blender.org
mtllib rockHermit.mtl
o Icosphere
v -0.002863 -1.020686 -0.015999
v 0.670758 -0.493343 0.546297
v -0.303450 -0.383359 0.800638
v -1.054279 -0.361133 -0.065276
v -0.279102 -0.491874 -0.873488
v 0.736076 -0.426089 -0.601310
v 0.055445 0.466862 0.878012
v -0.798789 0.354899 0.321681
v -0.543385 0.515301 -0.675164
v 0.441945 0.389450 -0.755602
v 0.752434 0.512776 0.287540
v -0.130930 1.009796 0.079480
v -0.206476 -0.780911 0.588889
v -0.074216 -0.897235 0.425775
v 0.274399 -0.941031 0.187528
v 0.609028 -0.671353 0.452973
v 0.389418 -0.435379 0.719670
v 0.135276 -0.493064 0.812465
v 0.782776 -0.377955 -0.151442
v 0.867025 -0.534372 0.157184
v 0.279087 -1.040380 -0.172440
v 0.552049 -0.801358 -0.359368
v -0.889174 -0.723466 0.033704
v -0.352491 -0.996248 0.057518
v -0.581691 -0.586022 0.705576
v -0.742732 -0.576922 0.397476
v -0.170826 -0.769330 -0.640657
v -0.021067 -0.845120 -0.389309
v -0.873547 -0.437675 -0.376417
v -0.601750 -0.568049 -0.667975
v -0.005739 -0.530806 -0.876541
v 0.445823 -0.470536 -0.755957
v 0.904917 0.095532 0.455106
v 0.858744 -0.145373 0.680170
v 0.931408 -0.174978 -0.376908
v 1.050085 0.170623 0.020227
v -0.361175 0.137949 0.930000
v -0.339251 -0.238070 0.930000
v 0.539836 -0.202935 0.848525
v 0.302680 0.158533 0.930000
v -0.915517 0.062574 0.174721
v -1.105244 -0.127902 -0.090982
v -0.691489 -0.149006 0.609616
v -0.836075 0.119329 0.399167
v -0.481230 0.170639 -0.912671
v -0.478374 -0.231880 -0.827557
v -1.023188 -0.268427 -0.243735
v -0.773584 0.151089 -0.670074
v 0.712361 0.162518 -0.689824
v 0.946450 -0.190039 -0.552425
v 0.189626 -0.170903 -1.068520
v 0.368600 0.136340 -0.962174
v 0.658132 0.510174 0.495735
v 0.421438 0.443299 0.781210
v -0.346690 0.425360 0.758161
v -0.567102 0.496783 0.582758
v -0.781364 0.538532 -0.065667
v -0.786287 0.430812 -0.408309
v -0.151756 0.565877 -0.898855
v 0.137336 0.604673 -0.855044
v 0.829058 0.485429 -0.447472
v 0.803035 0.537453 -0.146719
v -0.003477 0.937154 0.407756
v -0.048540 0.767191 0.644225
v 0.726707 0.767840 0.182308
v 0.332718 0.943289 0.136183
v -0.363501 0.902569 0.181579
v -0.674621 0.727618 0.168145
v -0.165768 0.888432 -0.266466
v -0.397678 0.792007 -0.564437
v 0.178147 0.867761 -0.302756
v 0.370563 0.758244 -0.506160
v 0.586105 0.847417 -0.173624
v 0.012822 0.864748 -0.587973
v -0.605460 0.871745 -0.162527
v -0.355399 0.860369 0.464779
v 0.306336 0.787418 0.440184
v 0.999204 0.213208 -0.323633
v -0.046423 0.218147 -1.044398
v -0.995384 0.131491 -0.281152
v -0.546848 0.227736 0.723884
v 0.644416 0.178717 0.782714
v 0.605117 -0.129138 -0.892138
v -0.777465 -0.194994 -0.547513
v -0.913921 -0.163872 0.331643
v 0.326381 -0.225501 0.930000
v 0.969729 -0.271534 0.315346
v 0.071070 -0.888376 -0.575173
v -0.388306 -0.755620 -0.413122
v -0.494806 -0.862846 0.368486
v 0.707870 -0.848286 -0.031124
v 0.163671 -0.786004 0.636868
v -0.275034 0.092858 0.950376
v -0.258611 -0.188820 0.950376
v 0.222262 0.108277 0.950376
v 0.240017 -0.179404 0.950376
v -0.275034 0.092858 0.427902
v -0.258611 -0.188820 0.427902
v 0.222262 0.108277 0.427902
v 0.240017 -0.179404 0.427902
v -0.422900 0.128845 0.427902
v -0.402087 -0.228126 0.427902
v 0.419818 0.148386 0.391306
v 0.442319 -0.216194 0.391306
v -0.422900 0.128845 -0.675940
v -0.402087 -0.228126 -0.675940
v 0.419818 0.148386 -0.712536
v 0.442319 -0.216194 -0.712536
vn 0.0703 -0.9577 0.2790
vn 0.7567 -0.4896 0.4333
vn -0.0111 -0.9635 0.2675
vn -0.1499 -0.8975 -0.4148
vn -0.2814 -0.8736 -0.3971
vn 0.7202 -0.5512 0.4214
vn -0.1888 -0.6786 0.7099
vn -0.8494 -0.1292 0.5116
vn -0.4857 -0.2230 -0.8452
vn 0.4848 -0.2590 -0.8354
vn 0.4693 -0.5263 0.7090
vn -0.6146 -0.6036 0.5079
vn -0.9298 -0.2344 -0.2838
vn -0.3309 -0.0877 -0.9396
vn 0.7286 -0.6743 0.1203
vn 0.2337 0.6464 0.7264
vn -0.7764 0.4432 0.4481
vn -0.6966 0.5508 -0.4597
vn 0.5776 0.5311 -0.6199
vn 0.9811 0.1496 0.1228
vn 0.1651 0.9606 -0.2234
vn 0.4019 0.9145 0.0457
vn 0.1141 0.9716 -0.2074
vn 0.1566 0.9238 -0.3493
vn 0.8111 0.5506 -0.1973
vn 0.8201 0.5715 -0.0279
vn 0.4878 0.7108 -0.5068
vn 0.4253 0.5621 -0.7094
vn 0.0215 0.9427 -0.3329
vn 0.3207 0.9268 -0.1957
vn 0.0555 0.9975 -0.0427
vn -0.1814 0.9682 -0.1721
vn 0.3515 0.7473 -0.5639
vn 0.0090 0.7185 -0.6955
vn -0.1700 0.7538 -0.6347
vn -0.4711 0.5302 -0.7050
vn -0.4922 0.8357 -0.2436
vn -0.0934 0.9663 -0.2400
vn -0.0506 0.9973 -0.0538
vn -0.4814 0.8359 0.2636
vn -0.6952 0.5458 -0.4677
vn -0.8919 0.4348 -0.1239
vn -0.8816 0.4715 0.0211
vn -0.9235 0.3610 0.1296
vn -0.2822 0.9077 0.3104
vn -0.4898 0.8601 0.1422
vn -0.1875 0.9707 0.1500
vn -0.0857 0.8167 0.5707
vn -0.6790 0.5523 0.4836
vn -0.4359 0.4972 0.7502
vn -0.3031 0.5287 0.7929
vn -0.2926 0.5222 0.8010
vn 0.1195 0.9782 0.1700
vn 0.2989 0.7470 0.5939
vn 0.3496 0.8210 0.4513
vn 0.3175 0.8323 0.4543
vn 0.3151 0.7191 0.6193
vn 0.4630 0.6972 0.5472
vn 0.4169 0.6553 0.6299
vn 0.8797 0.2544 0.4017
vn 0.7952 0.5930 0.1264
vn 0.9755 -0.1480 -0.1627
vn 0.8400 0.5396 -0.0575
vn 0.8513 0.5244 -0.0170
vn 0.9778 -0.1844 0.0996
vn 0.7442 0.2533 -0.6180
vn 0.7595 0.1920 -0.6215
vn 0.5127 0.3891 -0.7653
vn 0.5409 0.4322 -0.7216
vn 0.2278 0.1973 -0.9535
vn 0.2456 0.3298 -0.9115
vn 0.0834 0.4061 -0.9100
vn -0.3248 -0.1390 -0.9355
vn -0.2638 -0.2013 -0.9433
vn -0.3063 0.2871 -0.9076
vn -0.4885 0.4337 -0.7572
vn -0.7263 0.4518 -0.5181
vn -0.8689 0.0141 -0.4948
vn -0.8121 0.3787 -0.4440
vn -0.8394 0.5218 -0.1520
vn -0.8748 0.0155 -0.4842
vn -0.8282 0.5142 0.2228
vn -0.9067 0.3635 0.2138
vn -0.9409 0.3206 0.1096
vn -0.7886 0.3012 0.5361
vn -0.7590 0.0961 0.6440
vn -0.7628 0.2544 0.5945
vn -0.5012 0.3721 0.7813
vn -0.6682 0.0311 0.7433
vn -0.7517 -0.0438 0.6580
vn -0.5598 0.4458 0.6985
vn -0.2942 0.5013 0.8137
vn 0.2602 0.3597 0.8961
vn 0.3928 0.0507 0.9182
vn 0.3609 0.3092 0.8798
vn 0.6001 0.5093 0.6169
vn 0.4630 0.0259 0.8860
vn 0.7753 0.3454 0.5288
vn 0.7630 0.4048 0.5040
vn 0.8127 0.4471 0.3737
vn 0.5392 0.4332 -0.7222
vn 0.7084 0.2075 -0.6746
vn 0.5751 0.3129 -0.7559
vn 0.3807 0.0966 -0.9196
vn 0.5550 -0.5184 -0.6506
vn 0.2858 -0.4671 -0.8367
vn 0.3661 -0.5848 -0.7239
vn -0.0725 -0.4385 -0.8958
vn -0.6070 0.3738 -0.7013
vn -0.6853 -0.1553 -0.7115
vn -0.6064 -0.2594 -0.7517
vn -0.7317 -0.2202 -0.6451
vn -0.6866 -0.0905 -0.7214
vn -0.7558 -0.1502 -0.6374
vn -0.7488 -0.1574 -0.6438
vn -0.8206 -0.4360 -0.3694
vn -0.9332 0.2367 0.2705
vn -0.8648 0.2818 0.4155
vn -0.9396 0.1905 0.2844
vn -0.7808 0.0665 0.6212
vn -0.8772 -0.3044 0.3712
vn -0.8532 -0.2839 0.4376
vn -0.7780 -0.0581 0.6256
vn -0.3883 0.1035 0.9157
vn -0.0050 0.1623 0.9867
vn 0.2370 0.0146 0.9714
vn -0.0122 0.3924 0.9197
vn 0.3545 0.0219 0.9348
vn 0.0077 -0.4068 0.9135
vn 0.3917 -0.5899 0.7061
vn 0.3373 -0.6139 0.7137
vn 0.3211 -0.6096 0.7248
vn 0.8248 0.4427 0.3518
vn 0.9608 0.0672 0.2690
vn 0.9453 0.0439 0.3231
vn 0.9685 -0.2335 -0.0862
vn 0.7387 -0.5352 0.4098
vn 0.9283 -0.1611 -0.3351
vn 0.7223 -0.6784 -0.1346
vn 0.7970 -0.6037 -0.0181
vn 0.4384 -0.6289 -0.6421
vn 0.3623 -0.7947 -0.4871
vn 0.4069 -0.6449 -0.6469
vn 0.2814 -0.5824 -0.7627
vn -0.5154 -0.8551 -0.0565
vn -0.4396 -0.8981 -0.0089
vn -0.1202 -0.6548 -0.7462
vn -0.1027 -0.6626 -0.7419
vn -0.2738 -0.6787 -0.6815
vn -0.2243 -0.9619 -0.1564
vn -0.3850 -0.8672 -0.3158
vn -0.5499 -0.8226 -0.1448
vn -0.1863 -0.8805 -0.4360
vn -0.4029 -0.8270 -0.3921
vn -0.4985 -0.7022 -0.5083
vn -0.8100 -0.4663 -0.3558
vn -0.8526 -0.2655 0.4502
vn -0.4526 -0.8757 0.1685
vn -0.6311 -0.5974 0.4947
vn -0.6922 -0.6350 0.3430
vn -0.1229 -0.9312 0.3432
vn -0.1379 -0.8558 0.4985
vn -0.2241 -0.7807 0.5834
vn 0.0348 -0.4632 0.8856
vn 0.8859 -0.4619 -0.0425
vn 0.9000 -0.2369 -0.3658
vn 0.8602 -0.2506 -0.4442
vn 0.4757 -0.8105 -0.3417
vn 0.7257 -0.5851 0.3620
vn 0.3746 -0.8436 0.3848
vn 0.3238 -0.9109 0.2556
vn 0.0806 -0.9606 0.2662
vn -0.1463 -0.4926 0.8579
vn -0.0809 -0.8413 0.5344
vn -0.1169 -0.5189 0.8468
vn 0.3945 -0.4440 0.8045
vn 0.1230 -0.9284 0.3506
vn 0.3756 -0.8437 0.3836
vn 0.4375 -0.4636 0.7705
vn 0.3639 -0.5283 0.7671
vn -0.9981 -0.0616 -0.0000
vn 0.0310 -0.9995 -0.0000
vn -0.2370 -0.0138 0.9714
vn 0.0074 -0.3926 0.9197
vn -0.0314 0.4134 -0.9100
vn -0.1800 -0.0111 -0.9836
vn -0.0189 0.9998 -0.0000
vn 0.9983 0.0582 -0.0000
vn 0.0232 -0.9997 -0.0000
vn -0.0000 -0.0000 -1.0000
vn -0.0136 -0.4261 -0.9046
vn 0.0433 0.0025 0.9991
vn 0.0433 0.0027 0.9991
vn -0.0141 0.9999 -0.0000
vt 0.181819 0.000000
vt 0.212122 0.052487
vt 0.151516 0.052487
vt 0.272728 0.157461
vt 0.303031 0.104974
vt 0.333334 0.157461
vt 0.909091 0.000000
vt 0.939394 0.052487
vt 0.878788 0.052487
vt 0.727273 0.000000
vt 0.757576 0.052487
vt 0.696970 0.052487
vt 0.545455 0.000000
vt 0.575758 0.052487
vt 0.515152 0.052487
vt 0.303031 0.209948
vt 0.090910 0.157461
vt 0.151516 0.157461
vt 0.121213 0.209948
vt 0.818182 0.157461
vt 0.878788 0.157461
vt 0.848485 0.209948
vt 0.636364 0.157461
vt 0.696970 0.157461
vt 0.666667 0.209948
vt 0.454546 0.157461
vt 0.515152 0.157461
vt 0.484849 0.209948
vt 0.242425 0.209948
vt 0.060607 0.209948
vt 0.787879 0.209948
vt 0.606061 0.209948
vt 0.424243 0.209948
vt 0.181819 0.314921
vt 0.242425 0.314921
vt 0.212122 0.367408
vt 0.000000 0.314921
vt 0.060606 0.314921
vt 0.030303 0.367408
vt 0.727273 0.314921
vt 0.787879 0.314921
vt 0.757576 0.367408
vt 0.545455 0.314921
vt 0.606061 0.314921
vt 0.575758 0.367408
vt 0.363637 0.314921
vt 0.424243 0.314921
vt 0.393940 0.367408
vt 0.424243 0.419895
vt 0.484849 0.419895
vt 0.454546 0.472382
vt 0.454546 0.367408
vt 0.515152 0.367408
vt 0.484849 0.314921
vt 0.606061 0.419895
vt 0.666667 0.419895
vt 0.636364 0.472382
vt 0.636364 0.367408
vt 0.696970 0.367408
vt 0.666667 0.314921
vt 0.787879 0.419895
vt 0.848485 0.419895
vt 0.818182 0.472382
vt 0.818182 0.367408
vt 0.878788 0.367408
vt 0.848485 0.314921
vt 0.909091 0.314921
vt 0.060607 0.419895
vt 0.121213 0.419895
vt 0.090910 0.472382
vt 0.090910 0.367408
vt 0.151516 0.367408
vt 0.121213 0.314921
vt 0.242425 0.419895
vt 0.303031 0.419895
vt 0.272728 0.472382
vt 0.272728 0.367408
vt 0.333334 0.367408
vt 0.303031 0.314921
vt 0.393940 0.262434
vt 0.454546 0.262434
vt 0.515152 0.262434
vt 0.575758 0.262434
vt 0.636364 0.262434
vt 0.696970 0.262434
vt 0.757576 0.262434
vt 0.818182 0.262434
vt 0.878788 0.262434
vt 0.030303 0.262434
vt 0.090910 0.262434
vt 0.151516 0.262434
vt 0.212122 0.262434
vt 0.272728 0.262434
vt 0.333334 0.262434
vt 0.545455 0.209948
vt 0.575758 0.157461
vt 0.727273 0.209948
vt 0.757576 0.157461
vt 0.939394 0.262434
vt 0.909091 0.209948
vt 0.969697 0.209948
vt 0.939394 0.157461
vt 1.000000 0.157461
vt 0.181819 0.209948
vt 0.212122 0.157461
vt 0.363637 0.209948
vt 0.393940 0.157461
vt 0.484849 0.104974
vt 0.545455 0.104974
vt 0.606061 0.104974
vt 0.666667 0.104974
vt 0.727273 0.104974
vt 0.787879 0.104974
vt 0.848485 0.104974
vt 0.909091 0.104974
vt 0.969697 0.104974
vt 0.424243 0.104974
vt 0.363637 0.104974
vt 0.393940 0.052487
vt 0.333334 0.052487
vt 0.363637 0.000000
vt 0.121213 0.104974
vt 0.181819 0.104974
vt 0.242425 0.104974
s 0
f 1/1/1 15/2/1 14/3/1
f 2/4/2 16/5/2 20/6/2
f 1/7/3 14/8/3 24/9/3
f 1/10/4 24/11/4 28/12/4
f 1/13/5 28/14/5 21/15/5
f 2/4/6 20/6/6 34/16/6
f 3/17/7 18/18/7 38/19/7
f 4/20/8 26/21/8 42/22/8
f 5/23/9 30/24/9 46/25/9
f 6/26/10 32/27/10 50/28/10
f 2/4/11 34/16/11 39/29/11
f 3/17/12 38/19/12 43/30/12
f 4/20/13 42/22/13 47/31/13
f 5/23/14 46/25/14 51/32/14
f 6/26/15 50/28/15 35/33/15
f 7/34/16 54/35/16 64/36/16
f 8/37/17 56/38/17 68/39/17
f 9/40/18 58/41/18 70/42/18
f 10/43/19 60/44/19 72/45/19
f 11/46/20 62/47/20 65/48/20
f 66/49/21 71/50/21 12/51/21
f 65/48/22 73/52/22 66/49/22
f 66/49/23 73/52/23 71/50/23
f 73/52/24 72/53/24 71/50/24
f 65/48/25 62/47/25 73/52/25
f 62/47/26 61/54/26 73/52/26
f 73/52/27 61/54/27 72/53/27
f 61/54/28 10/43/28 72/53/28
f 71/55/29 69/56/29 12/57/29
f 72/45/30 74/58/30 71/55/30
f 71/55/31 74/58/31 69/56/31
f 74/58/32 70/59/32 69/56/32
f 72/45/33 60/44/33 74/58/33
f 60/44/34 59/60/34 74/58/34
f 74/58/35 59/60/35 70/59/35
f 59/60/36 9/40/36 70/59/36
f 69/61/37 67/62/37 12/63/37
f 70/42/38 75/64/38 69/61/38
f 69/61/39 75/64/39 67/62/39
f 75/64/40 68/65/40 67/62/40
f 70/42/41 58/41/41 75/64/41
f 58/41/42 57/66/42 75/64/42
f 75/64/43 57/66/43 68/65/43
f 57/66/44 8/67/44 68/65/44
f 67/68/45 63/69/45 12/70/45
f 68/39/46 76/71/46 67/68/46
f 67/68/47 76/71/47 63/69/47
f 76/71/48 64/72/48 63/69/48
f 68/39/49 56/38/49 76/71/49
f 56/38/50 55/73/50 76/71/50
f 76/71/51 55/73/51 64/72/51
f 55/73/52 7/34/52 64/72/52
f 63/74/53 66/75/53 12/76/53
f 64/36/54 77/77/54 63/74/54
f 63/74/55 77/77/55 66/75/55
f 77/77/56 65/78/56 66/75/56
f 64/36/57 54/35/57 77/77/57
f 54/35/58 53/79/58 77/77/58
f 77/77/59 53/79/59 65/78/59
f 53/79/60 11/46/60 65/78/60
f 36/80/61 62/47/61 11/46/61
f 35/33/62 78/81/62 36/80/62
f 36/80/63 78/81/63 62/47/63
f 78/81/64 61/54/64 62/47/64
f 35/33/65 50/28/65 78/81/65
f 50/28/66 49/82/66 78/81/66
f 78/81/67 49/82/67 61/54/67
f 49/82/68 10/43/68 61/54/68
f 52/83/69 60/44/69 10/43/69
f 51/32/70 79/84/70 52/83/70
f 52/83/71 79/84/71 60/44/71
f 79/84/72 59/60/72 60/44/72
f 51/32/73 46/25/73 79/84/73
f 46/25/74 45/85/74 79/84/74
f 79/84/75 45/85/75 59/60/75
f 45/85/76 9/40/76 59/60/76
f 48/86/77 58/41/77 9/40/77
f 47/31/78 80/87/78 48/86/78
f 48/86/79 80/87/79 58/41/79
f 80/87/80 57/66/80 58/41/80
f 47/31/81 42/22/81 80/87/81
f 42/22/82 41/88/82 80/87/82
f 80/87/83 41/88/83 57/66/83
f 41/88/84 8/67/84 57/66/84
f 44/89/85 56/38/85 8/37/85
f 43/30/86 81/90/86 44/89/86
f 44/89/87 81/90/87 56/38/87
f 81/90/88 55/73/88 56/38/88
f 43/30/89 38/19/89 81/90/89
f 38/19/90 37/91/90 81/90/90
f 81/90/91 37/91/91 55/73/91
f 37/91/92 7/34/92 55/73/92
f 40/92/93 54/35/93 7/34/93
f 39/29/94 82/93/94 40/92/94
f 40/92/95 82/93/95 54/35/95
f 82/93/96 53/79/96 54/35/96
f 39/29/97 34/16/97 82/93/97
f 34/16/98 33/94/98 82/93/98
f 82/93/99 33/94/99 53/79/99
f 33/94/100 11/46/100 53/79/100
f 49/82/101 52/83/101 10/43/101
f 50/28/102 83/95/102 49/82/102
f 49/82/103 83/95/103 52/83/103
f 83/95/104 51/32/104 52/83/104
f 50/28/105 32/27/105 83/95/105
f 32/27/106 31/96/106 83/95/106
f 83/95/107 31/96/107 51/32/107
f 31/96/108 5/23/108 51/32/108
f 45/85/109 48/86/109 9/40/109
f 46/25/110 84/97/110 45/85/110
f 45/85/111 84/97/111 48/86/111
f 84/97/112 47/31/112 48/86/112
f 46/25/113 30/24/113 84/97/113
f 30/24/114 29/98/114 84/97/114
f 84/97/115 29/98/115 47/31/115
f 29/98/116 4/20/116 47/31/116
f 41/88/117 44/99/117 8/67/117
f 42/22/118 85/100/118 41/88/118
f 41/88/119 85/100/119 44/99/119
f 85/100/120 43/101/120 44/99/120
f 42/22/121 26/21/121 85/100/121
f 26/21/122 25/102/122 85/100/122
f 85/100/123 25/102/123 43/101/123
f 25/102/124 3/103/124 43/101/124
f 37/91/125 40/92/125 7/34/125
f 86/104/126 40/92/126 95/92/126 96/104/126
f 40/92/127 37/91/127 93/91/127 95/92/127
f 86/104/128 39/29/128 40/92/128
f 38/19/129 18/18/129 86/104/129
f 18/18/130 17/105/130 86/104/130
f 86/104/131 17/105/131 39/29/131
f 17/105/132 2/4/132 39/29/132
f 33/94/133 36/80/133 11/46/133
f 34/16/134 87/106/134 33/94/134
f 33/94/135 87/106/135 36/80/135
f 87/106/136 35/33/136 36/80/136
f 34/16/137 20/6/137 87/106/137
f 20/6/138 19/107/138 87/106/138
f 87/106/139 19/107/139 35/33/139
f 19/107/140 6/26/140 35/33/140
f 22/108/141 32/27/141 6/26/141
f 21/15/142 88/109/142 22/108/142
f 22/108/143 88/109/143 32/27/143
f 88/109/144 31/96/144 32/27/144
f 21/15/145 28/14/145 88/109/145
f 28/14/146 27/110/146 88/109/146
f 88/109/147 27/110/147 31/96/147
f 27/110/148 5/23/148 31/96/148
f 27/111/149 30/24/149 5/23/149
f 28/12/150 89/112/150 27/111/150
f 27/111/151 89/112/151 30/24/151
f 89/112/152 29/98/152 30/24/152
f 28/12/153 24/11/153 89/112/153
f 24/11/154 23/113/154 89/112/154
f 89/112/155 23/113/155 29/98/155
f 23/113/156 4/20/156 29/98/156
f 23/114/157 26/21/157 4/20/157
f 24/9/158 90/115/158 23/114/158
f 23/114/159 90/115/159 26/21/159
f 90/115/160 25/102/160 26/21/160
f 24/9/161 14/8/161 90/115/161
f 14/8/162 13/116/162 90/115/162
f 90/115/163 13/116/163 25/102/163
f 13/116/164 3/103/164 25/102/164
f 19/107/165 22/117/165 6/26/165
f 20/6/166 91/118/166 19/107/166
f 19/107/167 91/118/167 22/117/167
f 91/118/168 21/119/168 22/117/168
f 20/6/169 16/5/169 91/118/169
f 16/5/170 15/120/170 91/118/170
f 91/118/171 15/120/171 21/119/171
f 15/120/172 1/121/172 21/119/172
f 13/122/173 18/18/173 3/17/173
f 14/3/174 92/123/174 13/122/174
f 13/122/175 92/123/175 18/18/175
f 92/123/176 17/105/176 18/18/176
f 14/3/177 15/2/177 92/123/177
f 15/2/178 16/124/178 92/123/178
f 92/123/179 16/124/179 17/105/179
f 16/124/180 2/4/180 17/105/180
f 96/104/181 95/92/181 99/92/181 100/104/181
f 95/92/182 93/91/182 97/91/182 99/92/182
f 37/91/183 38/19/183 94/19/183 93/91/183
f 38/19/184 86/104/184 96/104/184 94/19/184
f 98/19/185 100/104/185 104/104/185 102/19/185
f 100/104/186 99/92/186 103/92/186 104/104/186
f 94/19/187 96/104/187 100/104/187 98/19/187
f 93/91/188 94/19/188 98/19/188 97/91/188
f 104/104/181 103/92/181 107/92/181 108/104/181
f 103/92/189 101/91/189 105/91/189 107/92/189
f 97/91/190 98/19/190 102/19/190 101/91/190
f 99/92/191 97/91/191 101/91/191 103/92/191
f 106/19/192 108/104/192 105/91/192
f 105/91/193 108/104/193 107/92/193
f 102/19/194 104/104/194 108/104/194 106/19/194
f 101/91/188 102/19/188 106/19/188 105/91/188
